<?xml version="1.0" standalone="no"?>
<!DOCTYPE svg PUBLIC "-//W3C//DTD SVG 20010904//EN"
 "http://www.w3.org/TR/2001/REC-SVG-20010904/DTD/svg10.dtd">
<svg version="1.0" xmlns="http://www.w3.org/2000/svg"
 width="1000.000000pt" height="1000.000000pt" viewBox="0 0 1000.000000 1000.000000"
 preserveAspectRatio="xMidYMid meet">
<metadata>
Created by potrace 1.14, written by Peter Selinger 2001-2017
</metadata>
<g transform="translate(0.000000,1000.000000) scale(0.100000,-0.100000)"
fill="#000000" stroke="none">
<path d="M3909 9980 c-3 -25 4 -554 8 -583 3 -21 0 -43 -5 -50 -9 -11 -7 -178
14 -944 l7 -243 -30 0 c-16 0 -37 -6 -47 -13 -17 -12 -17 -35 -8 -401 7 -298
12 -390 22 -396 7 -4 64 -16 126 -25 63 -9 114 -18 114 -20 0 -4 -86 -29 -352
-106 l-77 -22 -3 -104 -3 -105 -80 -24 c-44 -14 -116 -36 -160 -49 -44 -14
-87 -25 -96 -25 -8 0 -23 -6 -33 -13 -17 -12 -17 -30 -1 -367 9 -195 20 -512
25 -705 9 -346 15 -505 27 -720 3 -60 6 -121 7 -135 1 -21 -13 -31 -114 -82
-63 -31 -120 -57 -126 -58 -33 -1 -36 -27 -25 -187 6 -87 16 -282 21 -433 9
-251 11 -276 29 -290 16 -13 19 -34 25 -150 3 -74 10 -200 15 -280 5 -80 11
-212 13 -295 l3 -149 -104 -69 -104 -69 7 -101 c6 -102 30 -564 41 -792 3 -66
8 -146 11 -177 l6 -57 78 -46 c44 -25 82 -45 85 -45 4 0 19 -8 33 -19 15 -10
52 -32 82 -49 30 -16 134 -75 232 -131 97 -55 179 -101 182 -101 4 0 19 -8 34
-19 15 -10 117 -69 227 -130 110 -62 207 -116 215 -121 82 -47 368 -208 380
-214 8 -3 29 -15 45 -25 43 -27 113 -66 550 -313 215 -122 472 -267 572 -324
101 -57 191 -104 200 -103 10 0 55 46 103 104 l85 105 5 164 6 164 57 68 c31
38 72 86 90 107 l34 39 90 -45 c49 -25 94 -42 99 -39 5 4 43 48 84 97 41 50
77 92 80 95 3 3 19 21 36 41 31 37 31 37 39 195 l7 159 46 54 c26 29 54 62 63
73 16 20 17 20 90 -15 41 -19 82 -37 91 -40 13 -4 35 17 86 81 80 100 78 91
88 357 3 88 7 162 9 165 5 8 33 483 37 614 l3 98 -60 22 c-52 19 -60 25 -59
46 1 14 7 131 14 260 6 129 15 289 20 355 5 85 4 123 -4 131 -6 6 -62 28 -125
48 -152 49 -173 61 -166 89 4 18 24 419 25 492 0 13 23 38 63 69 34 27 68 56
75 65 8 10 12 52 12 125 0 61 5 156 11 211 5 55 14 183 19 285 5 102 13 255
19 340 17 256 44 1201 35 1210 -5 5 -47 16 -94 25 -47 9 -114 22 -150 30 -36
8 -103 22 -150 30 -47 8 -107 20 -135 25 -27 6 -75 15 -105 20 -30 5 -100 18
-155 29 -55 11 -141 27 -192 37 -88 17 -91 18 -97 47 -12 60 -9 64 64 93 44
17 70 33 71 43 1 9 0 66 -1 127 l-2 111 49 20 c26 11 87 35 136 53 l87 34 0
90 c0 158 8 456 15 598 l8 136 -59 7 c-32 3 -66 7 -74 8 -20 3 -25 122 -11
257 16 142 23 490 25 1136 l1 540 -1252 0 c-689 0 -1253 -2 -1254 -6z m-199
-8230 c8 -5 10 -10 4 -10 -7 0 -22 9 -35 21 -19 16 -20 18 -4 10 11 -6 27 -15
35 -21z m135 -72 c14 -6 25 -15 25 -20 0 -8 -17 -1 -50 22 -20 13 -7 13 25 -2z
m115 -71 c0 -4 -13 0 -30 10 -16 9 -30 21 -30 26 0 4 14 0 30 -10 17 -9 30
-21 30 -26z m147 -74 c-9 -8 -48 8 -42 18 4 5 14 5 26 -2 12 -6 18 -13 16 -16z
m93 -55 c0 -4 -11 -3 -25 4 -13 6 -22 15 -19 19 5 9 44 -11 44 -23z m624 -333
c11 -8 18 -17 15 -19 -2 -3 -15 4 -29 14 -14 11 -20 20 -15 19 6 0 19 -6 29
-14z m251 -140 c22 -18 15 -17 -27 5 -16 7 -28 17 -28 22 0 10 25 -3 55 -27z
m230 -114 c3 -5 1 -12 -5 -16 -5 -3 -10 -1 -10 5 0 6 -5 8 -12 4 -7 -4 -8 -3
-4 4 9 14 23 15 31 3z m154 -88 c17 -10 31 -21 31 -26 0 -7 -37 10 -70 32 -26
18 6 12 39 -6z m96 -57 c11 -8 16 -16 12 -16 -14 0 -67 33 -67 43 0 9 24 -3
55 -27z"/>
</g>
</svg>
